Complete name : Cocuments and SettingsraikonenDesktopRevenge.S01E01.PreAir.h264-P2P_2.mkv
Format : Flash Video
File size : 162 MiB
Duration : 43mn 49s
Overall bit rate : 518 Kbps
Tagging application : Yet Another Metadata Injector for FLV - Version 1.5
Video
Format : AVC
Format/Info : Advanced Video Codec
Format profile : High@L3.0
Format settings, CABAC : Yes
Format settings, ReFrames : 4 frames
Muxing mode : Container profile=Unknown@3.0
Duration : 43mn 49s
Bit rate : 435 Kbps
Nominal bit rate : 460 Kbps
Width : 640 pixels
Height : 360 pixels
Display aspect ratio : 16:9
Frame rate mode : Constant
Frame rate : 23.976 fps
Color space : YUV
Chroma subsampling : 4:2:0
Bit depth : 8 bits
Scan type : Progressive
Bits/(Pixel*Frame) : 0.079
Stream size : 140 MiB (87%)
Writing library : x264 core 107
Encoding settings : cabac=1 / ref=1 / deblock=1:0:0 / analyse=0x3:0x113 / me=hex / subme=2 / psy=1 / psy_rd=0.00:0.00 / mixed_ref=0 / me_range=16 / chroma_me=1 / trellis=0 / 8x8dct=1 / cqm=0 / deadzone=21,11 / fast_pskip=1 / chroma_qp_offset=0 / threads=1 / sliced_threads=0 / nr=0 / decimate=1 / interlaced=0 / constrained_intra=0 / bframes=3 / b_pyramid=2 / b_adapt=1 / b_bias=0 / direct=1 / weightb=1 / open_gop=0 / weightp=0 / keyint=250 / keyint_min=25 / scenecut=40 / intra_refresh=0 / rc=abr / mbtree=0 / bitrate=460 / ratetol=8.7 / qcomp=0.60 / qpmin=10 / qpmax=51 / qpstep=4 / ip_ratio=1.41 / pb_ratio=1.25 / aq=1:1.00
Audio
Format : MPEG Audio
Format version : Version 1
Format profile : Layer 3
Mode : Joint stereo
Mode extension : MS Stereo
Duration : 43mn 49s
Bit rate mode : Constant
Bit rate : 64.0 Kbps
Channel(s) : 2 channels
Sampling rate : 44.1 KHz
Bit depth : 16 bits
Video delay : 84ms
Stream size : 21.2 MiB (13%)
Writing library : LAMEUUULAME3.98.4
